<mxfile host="app.diagrams.net" modified="2023-09-05T17:16:43.439Z" agent="Mozilla/5.0 (Macintosh; Intel Mac OS X 10_15_7) AppleWebKit/537.36 (KHTML, like Gecko) Chrome/116.0.0.0 Safari/537.36" etag="xBInunpKMWutwdLaRYHi" version="21.2.3" type="device">
  <diagram id="cGnB5dn_DnXe5ZkeEdu6" name="Page-1">
    <mxGraphModel dx="1912" dy="911" grid="1" gridSize="10" guides="1" tooltips="1" connect="1" arrows="1" fold="1" page="1" pageScale="1" pageWidth="291" pageHeight="413" math="0" shadow="0">
      <root>
        <mxCell id="0" />
        <mxCell id="1" parent="0" />
        <mxCell id="vGAjfYspigwUcFBMSBQ6-11" value="" style="rounded=1;whiteSpace=wrap;html=1;strokeColor=#82868b;" vertex="1" parent="1">
          <mxGeometry x="279" y="522" width="410" height="95" as="geometry" />
        </mxCell>
        <mxCell id="vGAjfYspigwUcFBMSBQ6-3" value="后端应用Y" style="rounded=1;whiteSpace=wrap;html=1;fillColor=#2b69bf;strokeColor=#6c8ebf;labelBorderColor=none;labelBackgroundColor=none;fontColor=#FFFFFF;" vertex="1" parent="1">
          <mxGeometry x="549" y="539.5" width="120" height="60" as="geometry" />
        </mxCell>
        <mxCell id="vGAjfYspigwUcFBMSBQ6-6" value="管理员" style="html=1;verticalLabelPosition=bottom;align=center;labelBackgroundColor=#ffffff;verticalAlign=top;strokeWidth=2;strokeColor=#0080F0;shadow=0;dashed=0;shape=mxgraph.ios7.icons.user;fontColor=#808489;" vertex="1" parent="1">
          <mxGeometry x="99" y="162" width="50" height="50" as="geometry" />
        </mxCell>
        <mxCell id="vGAjfYspigwUcFBMSBQ6-8" value="mt-ui&lt;br&gt;客户端" style="rounded=1;whiteSpace=wrap;html=1;fillColor=#2b69bf;strokeColor=#6c8ebf;labelBorderColor=none;labelBackgroundColor=none;fontColor=#FFFFFF;" vertex="1" parent="1">
          <mxGeometry x="299" y="267" width="120" height="60" as="geometry" />
        </mxCell>
        <mxCell id="vGAjfYspigwUcFBMSBQ6-9" value="mt-proxy&lt;br&gt;网关" style="rounded=1;whiteSpace=wrap;html=1;fillColor=#2b69bf;strokeColor=#6c8ebf;labelBorderColor=none;labelBackgroundColor=none;fontColor=#FFFFFF;" vertex="1" parent="1">
          <mxGeometry x="549" y="267" width="120" height="60" as="geometry" />
        </mxCell>
        <mxCell id="vGAjfYspigwUcFBMSBQ6-13" value="mt-access&lt;br&gt;服务端" style="rounded=1;whiteSpace=wrap;html=1;fillColor=#2b69bf;strokeColor=#6c8ebf;labelBorderColor=none;labelBackgroundColor=none;fontColor=#FFFFFF;" vertex="1" parent="1">
          <mxGeometry x="549" y="100" width="120" height="60" as="geometry" />
        </mxCell>
        <mxCell id="vGAjfYspigwUcFBMSBQ6-15" value="" style="endArrow=block;startArrow=block;html=1;rounded=0;fontColor=#2c69bf;labelBackgroundColor=#2c69bf;strokeColor=#2c69bf;startFill=1;endFill=1;" edge="1" parent="1">
          <mxGeometry width="50" height="50" relative="1" as="geometry">
            <mxPoint x="608.5799999999999" y="260" as="sourcePoint" />
            <mxPoint x="608.5799999999999" y="170" as="targetPoint" />
          </mxGeometry>
        </mxCell>
        <mxCell id="vGAjfYspigwUcFBMSBQ6-16" value="" style="endArrow=block;startArrow=block;html=1;rounded=0;fontColor=#2c69bf;labelBackgroundColor=#2c69bf;strokeColor=#2c69bf;startFill=1;endFill=1;" edge="1" parent="1">
          <mxGeometry width="50" height="50" relative="1" as="geometry">
            <mxPoint x="429" y="296" as="sourcePoint" />
            <mxPoint x="539" y="296" as="targetPoint" />
          </mxGeometry>
        </mxCell>
        <mxCell id="vGAjfYspigwUcFBMSBQ6-17" value="" style="endArrow=none;html=1;rounded=0;strokeColor=#2c69bf;endFill=0;" edge="1" parent="1">
          <mxGeometry width="50" height="50" relative="1" as="geometry">
            <mxPoint x="169" y="186.70999999999998" as="sourcePoint" />
            <mxPoint x="259" y="292" as="targetPoint" />
            <Array as="points">
              <mxPoint x="219" y="186.70999999999998" />
              <mxPoint x="259" y="187" />
            </Array>
          </mxGeometry>
        </mxCell>
        <mxCell id="vGAjfYspigwUcFBMSBQ6-19" value="租户" style="html=1;verticalLabelPosition=bottom;align=center;labelBackgroundColor=#ffffff;verticalAlign=top;strokeWidth=2;strokeColor=#0080F0;shadow=0;dashed=0;shape=mxgraph.ios7.icons.user;fontColor=#808489;" vertex="1" parent="1">
          <mxGeometry x="99" y="272" width="50" height="50" as="geometry" />
        </mxCell>
        <mxCell id="vGAjfYspigwUcFBMSBQ6-20" value="" style="endArrow=classic;html=1;rounded=0;strokeColor=#2c69bf;" edge="1" parent="1">
          <mxGeometry width="50" height="50" relative="1" as="geometry">
            <mxPoint x="169" y="297" as="sourcePoint" />
            <mxPoint x="289" y="297" as="targetPoint" />
          </mxGeometry>
        </mxCell>
        <mxCell id="vGAjfYspigwUcFBMSBQ6-22" value="用户" style="html=1;verticalLabelPosition=bottom;align=center;labelBackgroundColor=#ffffff;verticalAlign=top;strokeWidth=2;strokeColor=#0080F0;shadow=0;dashed=0;shape=mxgraph.ios7.icons.user;fontColor=#808489;" vertex="1" parent="1">
          <mxGeometry x="99" y="382" width="50" height="50" as="geometry" />
        </mxCell>
        <mxCell id="vGAjfYspigwUcFBMSBQ6-24" value="" style="endArrow=none;startArrow=block;html=1;rounded=0;fontColor=#2c69bf;labelBackgroundColor=#2c69bf;strokeColor=#2c69bf;startFill=1;endFill=0;" edge="1" parent="1">
          <mxGeometry width="50" height="50" relative="1" as="geometry">
            <mxPoint x="609" y="512" as="sourcePoint" />
            <mxPoint x="608.9900000000002" y="342" as="targetPoint" />
          </mxGeometry>
        </mxCell>
        <mxCell id="vGAjfYspigwUcFBMSBQ6-39" value="接收请求" style="edgeLabel;html=1;align=center;verticalAlign=middle;resizable=0;points=[];fontColor=#808489;labelBorderColor=none;labelBackgroundColor=none;" vertex="1" connectable="0" parent="vGAjfYspigwUcFBMSBQ6-24">
          <mxGeometry x="-0.1" relative="1" as="geometry">
            <mxPoint x="30" y="-3" as="offset" />
          </mxGeometry>
        </mxCell>
        <mxCell id="vGAjfYspigwUcFBMSBQ6-25" value="" style="endArrow=none;html=1;rounded=0;strokeColor=#2c69bf;endFill=0;edgeStyle=orthogonalEdgeStyle;" edge="1" parent="1">
          <mxGeometry width="50" height="50" relative="1" as="geometry">
            <mxPoint x="169" y="407.12" as="sourcePoint" />
            <mxPoint x="259" y="292" as="targetPoint" />
          </mxGeometry>
        </mxCell>
        <mxCell id="vGAjfYspigwUcFBMSBQ6-27" value="前端应用X" style="rounded=1;whiteSpace=wrap;html=1;fillColor=#2b69bf;strokeColor=#6c8ebf;labelBorderColor=none;labelBackgroundColor=none;fontColor=#FFFFFF;" vertex="1" parent="1">
          <mxGeometry x="299" y="539.5" width="120" height="60" as="geometry" />
        </mxCell>
        <mxCell id="vGAjfYspigwUcFBMSBQ6-28" value="" style="endArrow=block;startArrow=block;html=1;rounded=0;fontColor=#2c69bf;labelBackgroundColor=#2c69bf;strokeColor=#2c69bf;startFill=1;endFill=1;" edge="1" parent="1">
          <mxGeometry width="50" height="50" relative="1" as="geometry">
            <mxPoint x="359" y="512" as="sourcePoint" />
            <mxPoint x="358.58000000000004" y="337" as="targetPoint" />
          </mxGeometry>
        </mxCell>
        <mxCell id="vGAjfYspigwUcFBMSBQ6-33" value="登录" style="edgeLabel;html=1;align=center;verticalAlign=middle;resizable=0;points=[];fontColor=#808489;" vertex="1" connectable="0" parent="vGAjfYspigwUcFBMSBQ6-28">
          <mxGeometry x="0.0907" relative="1" as="geometry">
            <mxPoint x="-20" y="6" as="offset" />
          </mxGeometry>
        </mxCell>
        <mxCell id="vGAjfYspigwUcFBMSBQ6-29" value="项目A" style="text;html=1;align=center;verticalAlign=middle;resizable=0;points=[];autosize=1;strokeColor=none;fillColor=none;fontColor=#808489;" vertex="1" parent="1">
          <mxGeometry x="265" y="492" width="60" height="30" as="geometry" />
        </mxCell>
        <mxCell id="vGAjfYspigwUcFBMSBQ6-34" value="管理" style="text;html=1;align=center;verticalAlign=middle;resizable=0;points=[];autosize=1;strokeColor=none;fillColor=none;fontColor=#808489;" vertex="1" parent="1">
          <mxGeometry x="169" y="156" width="50" height="30" as="geometry" />
        </mxCell>
        <mxCell id="vGAjfYspigwUcFBMSBQ6-35" value="项目配置" style="text;html=1;align=center;verticalAlign=middle;resizable=0;points=[];autosize=1;strokeColor=none;fillColor=none;fontColor=#808489;" vertex="1" parent="1">
          <mxGeometry x="164" y="266" width="70" height="30" as="geometry" />
        </mxCell>
        <mxCell id="vGAjfYspigwUcFBMSBQ6-36" value="个人信息" style="text;html=1;align=center;verticalAlign=middle;resizable=0;points=[];autosize=1;strokeColor=none;fillColor=none;fontColor=#808489;" vertex="1" parent="1">
          <mxGeometry x="169" y="376" width="70" height="30" as="geometry" />
        </mxCell>
        <mxCell id="vGAjfYspigwUcFBMSBQ6-37" value="" style="endArrow=block;startArrow=none;html=1;rounded=0;fontColor=#2c69bf;labelBackgroundColor=#2c69bf;strokeColor=#2c69bf;startFill=0;endFill=1;" edge="1" parent="1">
          <mxGeometry width="50" height="50" relative="1" as="geometry">
            <mxPoint x="369" y="512" as="sourcePoint" />
            <mxPoint x="599" y="342" as="targetPoint" />
            <Array as="points">
              <mxPoint x="369" y="422" />
              <mxPoint x="599" y="422" />
            </Array>
          </mxGeometry>
        </mxCell>
        <mxCell id="vGAjfYspigwUcFBMSBQ6-38" value="&lt;font color=&quot;#808489&quot;&gt;发送请求&lt;/font&gt;" style="edgeLabel;html=1;align=center;verticalAlign=middle;resizable=0;points=[];" vertex="1" connectable="0" parent="vGAjfYspigwUcFBMSBQ6-37">
          <mxGeometry x="-0.2292" y="4" relative="1" as="geometry">
            <mxPoint x="39" y="-7" as="offset" />
          </mxGeometry>
        </mxCell>
      </root>
    </mxGraphModel>
  </diagram>
</mxfile>
